<?xml version="1.0" encoding="utf-8"?>
<svg version="1.1" xmlns:xlink="http://www.w3.org/1999/xlink" width="42px" height="45px" xmlns="http://www.w3.org/2000/svg">
  <defs>
    <filter x="783px" y="499px" width="42px" height="45px" filterUnits="userSpaceOnUse" id="filter5">
      <feOffset dx="5" dy="5" in="SourceAlpha" result="shadowOffsetInner" />
      <feGaussianBlur stdDeviation="2.5" in="shadowOffsetInner" result="shadowGaussian" />
      <feComposite in2="shadowGaussian" operator="atop" in="SourceAlpha" result="shadowComposite" />
      <feColorMatrix type="matrix" values="0 0 0 0 0  0 0 0 0 0  0 0 0 0 0  0 0 0 0.349019607843137 0  " in="shadowComposite" />
    </filter>
    <g id="widget6">
      <path d="M 8.88888888888889 11.1363636363636  L 8.88888888888889 16  L 23.1111111111111 16  L 23.1111111111111 11.1363636363636  C 23.1111111111111 9.37973484848485  22.4166666666667 7.87997159090909  21.0277777777778 6.63707386363636  C 19.6388888888889 5.39417613636364  17.962962962963 4.77272727272727  16 4.77272727272727  C 14.037037037037 4.77272727272727  12.3611111111111 5.39417613636364  10.9722222222222 6.63707386363636  C 9.58333333333333 7.87997159090909  8.88888888888889 9.37973484848485  8.88888888888889 11.1363636363636  Z M 31.2222222222222 16.6051136363636  C 31.7407407407407 17.0691287878788  32 17.6325757575758  32 18.2954545454545  L 32 32.6136363636364  C 32 33.2765151515152  31.7407407407407 33.8399621212121  31.2222222222222 34.3039772727273  C 30.7037037037037 34.7679924242424  30.0740740740741 35  29.3333333333333 35  L 2.66666666666667 35  C 1.92592592592593 35  1.2962962962963 34.7679924242424  0.777777777777778 34.3039772727273  C 0.259259259259259 33.8399621212121  0 33.2765151515152  0 32.6136363636364  L 0 18.2954545454545  C 0 17.6325757575758  0.259259259259259 17.0691287878788  0.777777777777778 16.6051136363636  C 1.2962962962963 16.1410984848485  1.92592592592593 15.9090909090909  2.66666666666667 15.9090909090909  L 3.55555555555556 15.9090909090909  L 3.55555555555556 11.1363636363636  C 3.55555555555556 8.08712121212121  4.77777777777778 5.46875  7.22222222222222 3.28125  C 9.66666666666667 1.09375  12.5925925925926 0  16 0  C 19.4074074074074 0  22.3333333333333 1.09375  24.7777777777778 3.28125  C 27.2222222222222 5.46875  28.4444444444444 8.08712121212121  28.4444444444444 11.1363636363636  L 28.4444444444444 15.9090909090909  L 29.3333333333333 15.9090909090909  C 30.0740740740741 15.9090909090909  30.7037037037037 16.1410984848485  31.2222222222222 16.6051136363636  Z " fill-rule="nonzero" fill="#3af5ff" stroke="none" transform="matrix(1 0 0 1 783 499 )" />
    </g>
  </defs>
  <g transform="matrix(1 0 0 1 -783 -499 )">
    <use xlink:href="#widget6" filter="url(#filter5)" />
    <use xlink:href="#widget6" />
  </g>
</svg>