<?xml version="1.0" encoding="utf-8"?>
<svg version="1.1" xmlns:xlink="http://www.w3.org/1999/xlink" width="42px" height="45px" xmlns="http://www.w3.org/2000/svg">
  <defs>
    <filter x="783px" y="419px" width="42px" height="45px" filterUnits="userSpaceOnUse" id="filter3">
      <feOffset dx="5" dy="5" in="SourceAlpha" result="shadowOffsetInner" />
      <feGaussianBlur stdDeviation="2.5" in="shadowOffsetInner" result="shadowGaussian" />
      <feComposite in2="shadowGaussian" operator="atop" in="SourceAlpha" result="shadowComposite" />
      <feColorMatrix type="matrix" values="0 0 0 0 0  0 0 0 0 0  0 0 0 0 0  0 0 0 0.349019607843137 0  " in="shadowComposite" />
    </filter>
    <g id="widget4">
      <path d="M 26.6666666666667 10  C 26.6666666666667 11.9140625  26.1180555555556 13.6848958333333  25.0208333333333 15.3125  C 25.6736111111111 15.4947916666667  26.2951388888889 15.7421875  26.8854166666667 16.0546875  C 27.4756944444444 16.3671875  28.09375 16.8424479166667  28.7395833333333 17.48046875  C 29.3854166666667 18.1184895833333  29.9375 18.8704427083333  30.3958333333333 19.736328125  C 30.8541666666667 20.6022135416667  31.2361111111111 21.7220052083333  31.5416666666667 23.095703125  C 31.8472222222222 24.4694010416667  32 26.0091145833333  32 27.71484375  C 32 29.7200520833333  31.3055555555556 31.435546875  29.9166666666667 32.861328125  C 28.5277777777778 34.287109375  26.8541666666667 35  24.8958333333333 35  L 7.10416666666667 35  C 5.14583333333333 35  3.47222222222222 34.287109375  2.08333333333333 32.861328125  C 0.694444444444444 31.435546875  0 29.7200520833333  0 27.71484375  C 0 26.0091145833333  0.152777777777778 24.4694010416667  0.458333333333333 23.095703125  C 0.763888888888889 21.7220052083333  1.14583333333333 20.6022135416667  1.60416666666667 19.736328125  C 2.0625 18.8704427083333  2.61458333333333 18.1184895833333  3.26041666666667 17.48046875  C 3.90625 16.8424479166667  4.52430555555556 16.3671875  5.11458333333333 16.0546875  C 5.70486111111111 15.7421875  6.32638888888889 15.4947916666667  6.97916666666667 15.3125  C 5.88194444444445 13.6848958333333  5.33333333333333 11.9140625  5.33333333333333 10  C 5.33333333333333 8.64583333333333  5.61458333333333 7.353515625  6.17708333333333 6.123046875  C 6.73958333333333 4.892578125  7.5 3.828125  8.45833333333333 2.9296875  C 9.41666666666667 2.03125  10.5520833333333 1.318359375  11.8645833333333 0.791015624999999  C 13.1770833333333 0.263671874999998  14.5555555555556 0  16 0  C 17.4444444444444 0  18.8229166666667 0.263671874999998  20.1354166666667 0.791015624999999  C 21.4479166666667 1.318359375  22.5833333333333 2.03125  23.5416666666667 2.9296875  C 24.5 3.828125  25.2604166666667 4.892578125  25.8229166666667 6.123046875  C 26.3854166666667 7.353515625  26.6666666666667 8.64583333333333  26.6666666666667 10  Z M 21.65625 4.697265625  C 20.09375 3.232421875  18.2083333333333 2.5  16 2.5  C 13.7916666666667 2.5  11.90625 3.232421875  10.34375 4.697265625  C 8.78125 6.162109375  8 7.9296875  8 10  C 8 12.0703125  8.78125 13.837890625  10.34375 15.302734375  C 11.90625 16.767578125  13.7916666666667 17.5  16 17.5  C 18.2083333333333 17.5  20.09375 16.767578125  21.65625 15.302734375  C 23.21875 13.837890625  24 12.0703125  24 10  C 24 7.9296875  23.21875 6.162109375  21.65625 4.697265625  Z M 7.10416666666667 32  L 24.8958333333333 32  C 26.1180555555556 32.5  27.1631944444444 32.0345052083333  28.03125 31.103515625  C 28.8993055555556 30.1725260416667  29.3333333333333 29.04296875  29.3333333333333 27.71484375  C 29.3333333333333 24.6028645833333  28.7881944444444 22.1484375  27.6979166666667 20.3515625  C 26.6076388888889 18.5546875  25.0416666666667 17.6106770833333  23 17.51953125  C 20.9861111111111 19.1731770833333  18.6527777777778 20  16 20  C 13.3472222222222 20  11.0138888888889 19.1731770833333  9 17.51953125  C 6.95833333333333 17.6106770833333  5.39236111111111 18.5546875  4.30208333333333 20.3515625  C 3.21180555555556 22.1484375  2.66666666666667 24.6028645833333  2.66666666666667 27.71484375  C 2.66666666666667 29.04296875  3.10069444444444 30.1725260416667  3.96875 31.103515625  C 4.83680555555556 32.0345052083333  5.88194444444445 32.5  7.10416666666667 32  Z " fill-rule="nonzero" fill="#3af5ff" stroke="none" transform="matrix(1 0 0 1 783 419 )" />
    </g>
  </defs>
  <g transform="matrix(1 0 0 1 -783 -419 )">
    <use xlink:href="#widget4" filter="url(#filter3)" />
    <use xlink:href="#widget4" />
  </g>
</svg>